<?xml version="1.0" standalone="no"?>
<!DOCTYPE svg PUBLIC "-//W3C//DTD SVG 20010904//EN"
 "http://www.w3.org/TR/2001/REC-SVG-20010904/DTD/svg10.dtd">
<svg version="1.0" xmlns="http://www.w3.org/2000/svg"
 width="446.000000pt" height="385.000000pt" viewBox="0 0 446.000000 385.000000"
 preserveAspectRatio="xMidYMid meet">

<g transform="translate(0.000000,385.000000) scale(0.100000,-0.100000)"
fill="#000000" stroke="none">
<path d="M1185 3740 c-150 -10 -228 -24 -326 -60 -140 -51 -222 -119 -277
-230 -26 -52 -27 -62 -27 -205 0 -82 3 -185 7 -228 l8 -78 -33 -17 c-178 -93
-197 -346 -39 -515 l50 -52 11 -105 c11 -99 43 -443 57 -595 3 -38 14 -88 24
-111 16 -39 28 -47 94 -68 10 -3 16 -12 14 -19 -3 -6 -22 -83 -43 -169 -37
-154 -38 -158 -64 -158 -14 -1 -95 -7 -179 -14 -117 -10 -157 -17 -170 -29
-21 -22 -29 -145 -12 -187 13 -32 41 -43 233 -91 73 -18 87 -25 81 -38 -26
-61 -33 -94 -33 -156 -1 -143 79 -238 221 -265 151 -29 285 75 319 247 7 34
17 63 22 63 5 0 97 -23 205 -51 109 -28 228 -59 265 -68 37 -10 67 -21 67 -24
0 -4 -8 -24 -17 -44 -25 -58 -22 -177 6 -236 62 -129 236 -190 364 -128 139
67 198 263 119 391 l-30 48 56 6 c32 3 140 13 242 21 206 17 799 71 872 80
l47 6 -16 -38 c-23 -55 -21 -167 4 -223 42 -95 131 -152 237 -153 101 0 177
45 233 140 47 81 41 219 -13 283 l-24 27 48 6 c26 3 126 14 222 24 220 22 220
22 220 146 0 122 4 119 -220 161 -102 18 -206 37 -232 40 -44 7 -48 10 -53 39
-13 78 -33 272 -29 279 3 4 17 8 32 8 55 0 103 21 122 52 21 34 19 22 55 503
14 182 28 347 31 367 3 22 22 58 44 85 72 92 85 127 85 233 -1 119 -25 180
-96 244 -75 67 -154 84 -519 110 -113 8 -302 18 -421 22 l-216 7 -13 71 c-23
134 -68 295 -101 363 -42 86 -143 189 -222 227 -119 56 -149 59 -682 61 -269
2 -544 -1 -610 -5z m1146 -111 c216 -50 306 -176 370 -518 19 -100 21 -125 10
-129 -29 -10 -80 -65 -95 -103 -12 -29 -19 -88 -23 -190 l-6 -149 -27 0 c-37
0 -528 -20 -559 -23 -23 -2 -25 3 -37 65 -35 188 -142 284 -348 314 -93 13
-538 44 -638 44 -33 0 -60 5 -66 13 -6 7 -27 98 -47 202 -39 202 -40 269 -9
344 28 66 86 110 169 126 77 15 294 22 754 23 437 2 469 1 552 -19z m-1580
-156 c-18 -63 -13 -150 19 -323 16 -91 32 -171 35 -177 3 -10 -14 -13 -69 -13
l-74 0 -6 43 c-3 23 -8 108 -11 188 -6 170 2 204 66 280 23 28 44 48 46 45 2
-2 0 -21 -6 -43z m2674 -573 c88 -7 166 -14 173 -16 10 -3 5 -15 -18 -40 -55
-63 -77 -147 -86 -337 -6 -111 -9 -127 -23 -122 -168 67 -437 127 -650 144
-74 6 -137 13 -139 16 -3 3 -1 70 5 150 11 162 16 172 88 207 37 18 58 19 265
14 124 -3 297 -10 385 -16z m-2300 -65 c154 -9 290 -18 302 -20 l22 -5 -28
-45 c-16 -25 -34 -65 -41 -90 -18 -64 -9 -189 17 -240 23 -45 86 -112 114
-120 9 -3 20 -13 23 -22 9 -23 24 -275 31 -533 4 -124 8 -262 10 -307 2 -46 3
-83 2 -83 -21 0 -842 211 -850 219 -5 5 -16 70 -23 143 -56 574 -65 652 -78
676 -8 15 -33 45 -56 67 -49 47 -66 76 -80 139 -20 90 9 164 85 219 46 32 16
32 550 2z m2766 -10 c47 -31 79 -90 86 -160 7 -67 -8 -110 -64 -187 -60 -81
-70 -107 -77 -208 -4 -47 -9 -110 -11 -140 -4 -53 -20 -265 -30 -400 -16 -225
-15 -218 -47 -229 -17 -6 -58 -14 -93 -17 l-63 -7 3 594 c2 531 4 599 19 641
20 53 67 111 111 133 41 22 117 13 166 -20z m-2178 -49 c121 -44 169 -154 187
-431 10 -151 6 -972 -5 -983 -7 -7 -213 -8 -219 -1 -2 2 -7 99 -11 214 -10
340 -25 688 -31 715 -12 55 -26 76 -69 103 -60 38 -82 68 -96 133 -24 106 19
206 106 245 47 22 86 23 138 5z m1282 -365 c175 -30 333 -74 441 -122 l49 -23
-50 -7 c-27 -5 -250 -18 -495 -29 -245 -11 -554 -28 -688 -37 -134 -8 -244
-14 -246 -12 -2 2 -7 57 -10 122 l-7 117 33 1 c18 1 80 5 138 9 58 4 242 7
410 5 253 -3 325 -7 425 -24z m499 -394 c-1 -98 -4 -141 -13 -146 -7 -5 -63
-11 -124 -14 -589 -34 -1171 -68 -1254 -73 l-103 -7 0 146 c0 144 0 147 23
152 26 6 378 28 787 50 162 9 358 19 435 24 77 5 165 8 195 7 l55 -1 -1 -138z
m6 -397 c0 -94 -4 -141 -11 -146 -7 -4 -136 -15 -288 -25 -559 -37 -899 -60
-1011 -69 -63 -6 -133 -10 -155 -10 l-40 0 3 155 3 155 40 0 c57 0 877 47
1184 68 143 10 263 17 268 15 4 -3 7 -67 7 -143z m-2556 -200 c5 -5 -11 -55
-36 -117 -25 -59 -55 -134 -68 -166 -26 -65 -28 -68 -58 -60 -29 7 -28 23 12
178 18 72 36 143 40 159 7 27 8 28 54 21 26 -4 51 -10 56 -15z m404 -92 l242
-61 0 -38 c0 -46 1 -45 -145 -53 -55 -3 -187 -11 -293 -17 -106 -6 -195 -10
-197 -7 -3 2 19 59 47 127 49 117 52 122 77 116 14 -3 135 -33 269 -67z m2253
-8 c13 -108 30 -236 35 -267 6 -32 5 -33 -28 -33 -32 0 -35 3 -50 48 -17 48
-91 253 -103 284 -6 15 1 17 52 21 91 6 87 8 94 -53z m-219 -52 c56 -146 55
-141 21 -134 -15 3 -140 24 -278 46 -137 22 -263 43 -278 46 -26 5 -28 9 -25
47 l3 42 65 8 c73 9 366 33 421 36 l36 1 35 -92z m-654 -40 l3 -78 -45 0 -44
0 -12 53 c-22 103 -23 95 12 100 82 11 83 10 86 -75z m-205 45 c3 -16 4 -29 4
-30 -3 -2 -569 -43 -604 -43 -29 0 -31 2 -24 28 9 32 -15 28 311 52 337 24
307 25 313 -7z m-723 -29 c0 -6 -8 -54 -19 -105 -10 -52 -22 -116 -26 -144 -9
-68 -19 -82 -52 -81 l-28 1 1 85 c1 47 2 124 3 172 l1 88 60 -2 c39 -1 60 -6
60 -14z m750 -118 c0 -7 9 -25 21 -40 19 -25 25 -26 115 -26 81 0 97 3 114 20
11 11 20 27 20 36 0 12 7 14 28 10 15 -3 142 -24 282 -45 140 -22 274 -43 298
-47 34 -5 46 -12 53 -33 6 -14 17 -33 25 -42 13 -15 10 -17 -30 -22 -40 -6
-1009 -95 -1436 -132 -364 -32 -316 -34 -575 33 -314 82 -535 140 -567 149
l-28 8 23 27 22 26 240 11 c132 6 282 14 333 18 l93 6 -2 -112 c-3 -145 4
-154 114 -152 129 2 133 6 162 175 8 49 17 91 19 94 5 4 106 13 421 36 248 18
255 18 255 2z m-1525 -281 l600 -151 3 -31 3 -31 -233 58 c-128 32 -412 102
-630 155 l-398 97 0 34 c0 33 2 34 28 28 15 -4 297 -76 627 -159z m2790 125
c15 -6 6 -9 -32 -9 -29 -1 -53 4 -53 9 0 12 57 12 85 0z m325 -100 c0 -23 -5
-31 -22 -34 -32 -7 -489 -53 -813 -81 -321 -28 -555 -50 -760 -70 -226 -23
-741 -65 -784 -65 -38 0 -38 0 -32 33 6 28 11 32 41 34 82 6 480 38 715 58
277 23 1199 112 1445 140 63 7 136 13 163 14 46 1 47 0 47 -29z m-3373 -120
c12 0 10 -7 -7 -34 -45 -74 -36 -176 22 -242 34 -38 32 -40 -20 -19 -43 19
-79 50 -98 87 -21 41 -18 124 7 176 20 40 24 43 52 38 16 -3 36 -6 44 -6z
m2740 -98 c-63 -70 -61 -209 5 -279 l21 -23 -25 0 c-34 0 -88 38 -112 80 -30
50 -28 132 4 190 23 41 29 45 70 50 55 7 58 5 37 -18z m-1650 -140 c-30 -33
-57 -106 -57 -158 0 -50 41 -154 61 -154 5 0 9 -5 9 -10 0 -19 -75 20 -112 59
-44 47 -56 96 -39 161 25 93 47 113 135 119 18 1 18 0 3 -17z"/>
</g>
</svg>
